<svg xmlns="http://www.w3.org/2000/svg" viewBox="0 0 302.86 395.98"><defs><style>.cls-1{fill:#fff;}</style></defs><title>Asset 1</title><g id="Layer_2" data-name="Layer 2"><g id="v1"><path class="cls-1" d="M191.56,98.5V28.93h31.33a12.21,12.21,0,0,0,12.17-12.18V12.17A12.2,12.2,0,0,0,222.89,0H80A12.21,12.21,0,0,0,67.8,12.17v4.58A12.21,12.21,0,0,0,80,28.93H111.3V98.5a151.43,151.43,0,1,0,80.26,0ZM203,160.66a21,21,0,1,1-21,21A21.23,21.23,0,0,1,203,160.66Zm-62.25-22.07a20.16,20.16,0,1,1-20.17,20.16A20.43,20.43,0,0,1,140.75,138.59Zm140.71,110A130,130,0,0,1,21.7,252.32a13.26,13.26,0,0,1-.37-3.09V227.11A14.56,14.56,0,0,1,35.7,212.74a14.6,14.6,0,0,1,14.37,14.37v17.44h.19v19.52a14.37,14.37,0,0,0,28.74,0V244.55h.2V202.48a14.37,14.37,0,0,1,28.74,0v42.07h.28a14.36,14.36,0,0,0,28.56,0h.28V227.11a14.37,14.37,0,0,1,28.74,0v17.44H166V263a14.37,14.37,0,1,0,28.74,0V244.55h.2v-5.12a14.37,14.37,0,1,1,28.74,0v5.12h.19v2.07a14.37,14.37,0,0,0,28.74,0v-2.07h.19V223a14.37,14.37,0,1,1,28.74,0v24.28C281.53,247.73,281.5,248.17,281.46,248.61Z"/></g></g></svg>